<svg version="1.0" xmlns="http://www.w3.org/2000/svg"
 width="1156.000000pt" height="429.000000pt" viewBox="0 0 1156.000000 429.000000"
 preserveAspectRatio="xMidYMid meet">
<g transform="translate(0.000000,429.000000) scale(0.100000,-0.100000)"
stroke="none">
<path d="M2015 3540 c-127 -11 -244 -36 -355 -77 -473 -175 -798 -558 -896
-1058 -24 -123 -24 -367 0 -490 87 -444 354 -798 752 -998 448 -225 1005 -182
1412 110 208 150 352 322 457 547 191 408 168 899 -60 1285 -72 122 -134 198
-248 307 -233 223 -512 346 -842 374 -66 5 -122 9 -125 8 -3 0 -46 -4 -95 -8z
m370 -145 c375 -79 699 -325 870 -660 54 -106 100 -243 120 -355 22 -126 20
-349 -5 -471 -99 -482 -461 -860 -940 -980 -121 -30 -398 -38 -525 -14 -261
48 -475 162 -666 354 -260 261 -379 565 -366 936 8 198 44 349 125 510 186
373 554 640 957 694 101 14 336 6 430 -14z"/>
<path d="M1960 3330 c-173 -24 -382 -111 -526 -219 -294 -219 -463 -537 -481
-901 -10 -207 28 -385 121 -575 154 -312 430 -535 773 -626 99 -27 344 -37
462 -20 427 63 793 367 939 781 49 142 65 258 59 433 -5 165 -22 249 -78 392
-142 362 -469 638 -854 721 -85 19 -325 26 -415 14z m451 -45 c433 -110 760
-453 855 -897 23 -111 21 -358 -4 -474 -36 -162 -115 -334 -212 -459 -57 -74
-194 -203 -269 -254 -405 -276 -967 -261 -1351 34 -374 288 -538 757 -423
1215 44 180 161 386 296 523 180 184 429 308 677 338 116 14 325 1 431 -26z"/>
<path d="M6373 2639 c-167 -21 -266 -124 -266 -274 0 -161 80 -239 301 -291
143 -33 170 -44 198 -77 34 -41 34 -114 -1 -155 -73 -87 -272 -57 -376 55
l-43 46 -42 -49 c-77 -88 -77 -88 -12 -149 82 -76 195 -115 334 -115 231 0
358 109 358 305 0 90 -14 132 -63 188 -44 49 -114 80 -256 112 -66 15 -134 33
-152 40 -59 25 -82 109 -43 158 57 73 263 64 347 -15 12 -11 28 -18 35 -15 7
2 32 32 55 65 l43 61 -33 27 c-51 44 -126 72 -217 83 -46 6 -89 10 -95 10 -5
-1 -38 -5 -72 -10z"/>
<path d="M8313 2640 c-172 -31 -296 -140 -349 -307 -24 -76 -29 -254 -10 -343
52 -243 231 -374 489 -357 159 10 258 71 322 199 l35 71 -67 38 c-38 21 -73
38 -79 39 -6 0 -19 -21 -29 -46 -37 -98 -138 -154 -252 -140 -66 8 -106 27
-156 74 -54 52 -78 136 -78 272 1 161 32 243 118 304 36 25 54 30 121 34 48 3
94 0 117 -8 44 -14 100 -62 121 -101 8 -16 19 -29 24 -29 17 0 140 82 140 94
0 22 -65 105 -106 136 -75 57 -244 90 -361 70z"/>
<path d="M9285 2639 c-171 -25 -303 -148 -351 -326 -18 -71 -21 -246 -4 -328
36 -179 167 -312 340 -345 206 -39 390 31 464 178 45 90 45 87 -33 127 -39 19
-73 35 -75 35 -3 0 -14 -21 -26 -47 -38 -86 -96 -128 -193 -139 -120 -14 -233
54 -271 162 -24 68 -32 215 -16 297 28 151 114 227 256 227 110 0 184 -39 214
-111 7 -16 18 -29 24 -29 6 0 41 19 78 43 l68 42 -21 42 c-42 86 -136 147
-258 169 -85 15 -110 15 -196 3z"/>
<path d="M10274 2640 c-112 -16 -203 -63 -270 -138 -99 -111 -140 -362 -90
-548 21 -78 74 -171 124 -215 173 -152 489 -145 641 16 92 97 131 211 131 386
0 283 -137 465 -375 499 -78 11 -88 11 -161 0z m191 -179 c86 -39 128 -109
146 -240 14 -101 -1 -222 -35 -297 -57 -123 -225 -169 -356 -98 -90 49 -130
147 -130 314 0 183 51 286 162 327 52 18 167 15 213 -6z"/>
<path d="M3910 2134 l0 -496 268 4 c301 6 339 12 410 74 61 52 84 103 90 197
3 57 0 89 -12 121 -20 53 -88 119 -139 135 -21 7 -37 18 -37 24 1 7 18 24 39
38 99 69 108 235 17 325 -66 66 -106 74 -393 74 l-243 0 0 -496z m456 341 c82
-34 84 -182 3 -225 -12 -7 -77 -15 -145 -18 l-124 -5 0 132 0 131 115 0 c79 0
127 -5 151 -15z m52 -398 c94 -51 98 -204 5 -264 -22 -15 -53 -19 -175 -21
l-148 -4 0 157 0 157 143 -4 c110 -3 149 -8 175 -21z"/>
<path d="M4880 2135 l0 -495 95 0 95 0 0 495 0 495 -95 0 -95 0 0 -495z"/>
<path d="M5240 2550 l0 -80 140 0 140 0 0 -415 0 -415 95 0 95 0 0 415 0 415
145 0 145 0 0 80 0 80 -380 0 -380 0 0 -80z"/>
<path d="M7077 2142 c-92 -268 -167 -490 -167 -494 0 -5 42 -8 94 -8 l95 0 38
115 37 115 195 -2 194 -3 37 -110 37 -110 96 -3 c53 -1 97 1 97 5 0 4 -75 227
-167 495 l-168 488 -125 0 -125 0 -168 -488z m366 91 l65 -198 -136 -3 c-74
-1 -137 -1 -139 2 -9 9 121 396 134 396 7 0 37 -77 76 -197z"/>
</g>
</svg>
