<svg version="1.0" xmlns="http://www.w3.org/2000/svg"
 width="500.000000pt" height="500.000000pt" viewBox="0 0 500.000000 500.000000"
 preserveAspectRatio="xMidYMid meet">
<g transform="translate(0.000000,500.000000) scale(0.100000,-0.100000)"
stroke="none">
<path d="M2380 4654 c-456 -31 -894 -200 -1236 -478 -174 -141 -372 -368 -486
-557 -313 -517 -395 -1138 -228 -1719 138 -485 457 -917 885 -1201 242 -161
556 -282 858 -330 102 -16 177 -21 327 -21 226 0 384 21 577 76 390 112 689
291 969 577 171 176 295 353 398 569 143 301 208 591 208 930 0 477 -141 905
-425 1290 -80 108 -257 294 -363 381 -219 179 -529 339 -797 410 -199 52 -505
85 -687 73z m301 -205 c231 -18 489 -93 709 -205 547 -279 918 -773 1042
-1384 20 -102 23 -143 23 -365 0 -222 -3 -263 -23 -365 -87 -428 -318 -834
-629 -1105 -254 -221 -556 -371 -908 -452 -114 -26 -133 -27 -385 -28 -241 0
-275 2 -375 23 -636 136 -1131 521 -1402 1089 -363 762 -192 1677 423 2263
252 240 579 413 934 494 184 42 371 53 591 35z"/>
<path d="M2325 4323 c-295 -36 -511 -105 -736 -233 -495 -284 -821 -768 -904
-1343 -21 -146 -16 -434 10 -577 118 -644 573 -1183 1184 -1404 510 -184 1109
-127 1566 149 201 121 421 325 557 516 143 199 262 481 309 730 30 160 36 404
15 569 -109 831 -752 1477 -1579 1585 -105 13 -342 18 -422 8z m465 -49 c480
-70 936 -366 1213 -787 127 -192 227 -446 268 -675 30 -166 30 -458 0 -624
-123 -689 -640 -1251 -1313 -1427 -161 -42 -269 -55 -458 -55 -189 0 -297 13
-458 55 -673 176 -1190 738 -1313 1427 -30 166 -30 458 0 624 146 820 832
1431 1661 1482 91 5 299 -5 400 -20z"/>
<path d="M1680 2860 l0 -412 223 5 c130 3 238 9 261 17 50 15 122 82 137 128
7 20 13 64 13 98 0 85 -34 141 -108 180 l-54 28 43 41 c96 89 79 231 -35 295
-44 24 -52 25 -262 28 l-218 4 0 -412z m395 268 c32 -28 43 -85 25 -129 -19
-45 -61 -59 -175 -59 l-95 0 0 105 0 105 109 0 c100 0 112 -2 136 -22z m-4
-308 c19 -6 46 -22 60 -36 20 -21 24 -36 24 -86 0 -55 -3 -62 -33 -89 -32 -29
-33 -29 -162 -29 l-130 0 0 118 c0 65 3 122 7 125 10 11 194 8 234 -3z"/>
<path d="M2480 2860 l0 -410 80 0 80 0 0 410 0 410 -80 0 -80 0 0 -410z"/>
<path d="M2780 3205 l0 -65 115 0 115 0 0 -345 0 -345 80 0 80 0 0 345 0 345
120 0 120 0 0 65 0 65 -315 0 -315 0 0 -65z"/>
<path d="M1505 2030 c-60 -24 -88 -99 -62 -162 18 -42 47 -60 137 -83 78 -20
90 -29 90 -65 0 -65 -95 -83 -167 -31 l-41 30 -21 -23 c-44 -47 19 -96 134
-104 120 -8 177 35 177 135 0 78 -39 111 -158 135 -63 12 -89 36 -80 72 11 46
95 56 155 18 23 -14 26 -13 43 8 25 30 23 37 -14 60 -25 15 -50 20 -103 19
-38 0 -79 -4 -90 -9z"/>
<path d="M1945 2028 c-3 -7 -38 -109 -79 -225 l-73 -213 43 0 43 0 17 55 18
56 90 -3 89 -3 15 -52 15 -53 44 0 c32 0 44 4 41 13 -3 6 -38 108 -78 225
l-73 212 -54 0 c-34 0 -55 -5 -58 -12z m93 -168 l31 -90 -65 0 c-35 0 -64 3
-64 7 0 18 55 173 61 173 4 0 21 -40 37 -90z"/>
<path d="M2375 2023 c-16 -8 -38 -23 -49 -32 -69 -60 -80 -234 -21 -323 71
-107 270 -105 325 2 l20 39 -32 17 c-26 14 -33 14 -37 3 -2 -8 -17 -26 -32
-41 -21 -22 -37 -28 -69 -28 -88 0 -130 50 -130 155 0 106 41 157 127 157 41
0 52 -5 76 -32 27 -31 28 -31 57 -13 17 9 30 22 30 28 0 17 -51 62 -83 74 -42
16 -147 13 -182 -6z"/>
<path d="M2808 2020 c-66 -36 -98 -103 -98 -210 0 -82 32 -153 86 -190 51 -34
162 -40 214 -12 32 17 80 73 80 93 0 8 -52 39 -65 39 -3 0 -5 -6 -5 -14 0 -8
-14 -26 -31 -40 -54 -46 -151 -28 -179 33 -29 65 -21 173 18 221 36 44 140 42
177 -4 19 -23 22 -24 48 -10 15 8 27 20 27 27 -1 20 -33 54 -67 71 -46 23
-157 21 -205 -4z"/>
<path d="M3265 2026 c-77 -34 -125 -141 -111 -249 17 -122 89 -187 208 -187
131 1 200 79 200 225 0 107 -38 181 -109 211 -41 18 -148 17 -188 0z m164 -72
c73 -52 67 -243 -9 -281 -38 -19 -103 -16 -132 7 -39 30 -51 70 -46 156 3 71
6 78 36 105 26 23 42 29 80 29 28 0 57 -7 71 -16z"/>
</g>
</svg>
